<svg width="60" height="58" viewBox="0 0 60 58" fill="none" xmlns="http://www.w3.org/2000/svg">
<path d="M55.6853 7.54067C51.7188 3.29066 47.2396 0.891571 42.1502 0.891571C37.1958 0.891571 32.8893 3.15552 30.0017 7.01336C27.122 3.15271 22.8341 0.891571 17.8827 0.891571C12.8281 0.891571 8.42386 3.26583 4.36566 7.52147C-1.70847 13.8868 -1.73095 25.6739 6.11342 33.5182C7.63611 35.0409 11.4291 38.9426 16.7808 44.4808C19.3493 47.139 22.0122 49.8999 24.672 52.6609C25.603 53.6272 26.467 54.5246 27.2421 55.3299C28.0391 56.1582 28.0391 56.1582 28.216 56.342C29.1988 57.3638 30.8341 57.3638 31.817 56.342C31.9939 56.1582 31.9939 56.1582 32.7909 55.3299C33.566 54.5246 34.43 53.6273 35.3609 52.6609C38.0207 49.8999 40.6836 47.139 43.1734 44.5623C48.6039 38.9425 52.3968 35.0409 53.9195 33.5181C61.7339 25.7039 61.6784 13.9601 55.6853 7.54067Z" fill="#FF2B1F"/>
</svg>
