<svg width="60" height="58" viewBox="0 0 60 58" fill="none" xmlns="http://www.w3.org/2000/svg">
<path d="M55.6853 7.54067C51.7188 3.29066 47.2396 0.891571 42.1502 0.891571C37.1958 0.891571 32.8893 3.15552 30.0017 7.01336C27.122 3.15271 22.8341 0.891571 17.8827 0.891571C12.8281 0.891571 8.42386 3.26583 4.36566 7.52147C-1.70847 13.8868 -1.73095 25.6739 6.11342 33.5182C7.63611 35.0409 11.4291 38.9426 16.7808 44.4808C19.3493 47.139 22.0122 49.8999 24.672 52.6609C25.603 53.6272 26.467 54.5246 27.2421 55.3299C28.0391 56.1582 28.0391 56.1582 28.216 56.342C29.1988 57.3638 30.8341 57.3638 31.817 56.342C31.9939 56.1582 31.9939 56.1582 32.7909 55.3299C33.566 54.5246 34.4299 53.6273 35.3609 52.6609C38.0207 49.8999 40.6836 47.139 43.1734 44.5623C48.6038 38.9425 52.3968 35.0409 53.9195 33.5181C61.7339 25.7039 61.6784 13.9601 55.6853 7.54067ZM50.3865 29.9853C48.8345 31.5373 45.0362 35.4445 39.6592 41.009C37.0885 43.6694 34.424 46.4321 31.7626 49.1947C31.1494 49.8312 30.5653 50.4378 30.0166 51.0077C29.4677 50.4377 28.8836 49.8312 28.2705 49.1947C25.6091 46.4321 22.9444 43.6694 20.4527 41.0906C14.9967 35.4445 11.1985 31.5374 9.64653 29.9854C3.74279 24.0817 3.7593 15.3944 7.98109 10.9703C11.1792 7.61644 14.3855 5.888 17.8827 5.888C22.3044 5.888 25.8962 8.52492 27.6735 13.0536C28.5031 15.1677 31.4949 15.1677 32.3246 13.0536C34.0978 8.53511 37.7187 5.888 42.1503 5.888C45.6828 5.888 48.9335 7.62908 52.033 10.9501C56.2208 15.436 56.2618 24.1099 50.3865 29.9853Z" fill="#FF2B1F"/>
</svg>
